HIERARCHY
ROOT Hips
{
	OFFSET -3.958830 18.904000 13.208200
	CHANNELS 6 Xposition Yposition Zposition Zrotation Yrotation Xrotation 
	JOINT LHipJoint
	{
		OFFSET 0.000000 0.000000 0.000000
		CHANNELS 3 Zrotation Yrotation Xrotation
		JOINT LeftUpLeg
		{
			OFFSET 1.800000 -1.400000 0.085000
			CHANNELS 3 Zrotation Yrotation Xrotation
			JOINT LeftLeg
			{
				OFFSET 2.215000 -6.000000 0.000000
				CHANNELS 3 Zrotation Yrotation Xrotation
				JOINT LeftFoot
				{
					OFFSET 2.500000 -6.900000 0.000000
					CHANNELS 3 Zrotation Yrotation Xrotation
					JOINT LeftToeBase
					{
						OFFSET 0.200000 -0.500000 1.950000
						CHANNELS 3 Zrotation Yrotation Xrotation
						End Site
						{
							OFFSET 0.000000 0.000000 0.000000
						}
					}
				}
			}
		}
	}
	JOINT RHipJoint
	{
		OFFSET 0.000000 0.000000 0.000000
		CHANNELS 3 Zrotation Yrotation Xrotation
		JOINT RightUpLeg
		{
			OFFSET -1.800000 -1.400000 0.085000
			CHANNELS 3 Zrotation Yrotation Xrotation
			JOINT RightLeg
			{
				OFFSET -2.215000 -6.000000 0.000000
				CHANNELS 3 Zrotation Yrotation Xrotation
				JOINT RightFoot
				{
					OFFSET -2.500000 -6.900000 0.000000
					CHANNELS 3 Zrotation Yrotation Xrotation
					JOINT RightToeBase
					{
						OFFSET -0.200000 -0.500000 1.950000
						CHANNELS 3 Zrotation Yrotation Xrotation
						End Site
						{
							OFFSET 0.000000 0.000000 0.000000
						}
					}
				}
			}
		}
	}
	JOINT LowerBack
	{
		OFFSET 0.000000 0.000000 0.000000
		CHANNELS 3 Zrotation Yrotation Xrotation
		JOINT Spine
		{
			OFFSET -0.087000 1.940000 -0.288900
			CHANNELS 3 Zrotation Yrotation Xrotation
			JOINT Spine1
			{
				OFFSET 0.000000 1.950000 0.060000
				CHANNELS 3 Zrotation Yrotation Xrotation
				JOINT Neck
				{
					OFFSET 0.000000 0.000000 0.000000
					CHANNELS 3 Zrotation Yrotation Xrotation
					JOINT Neck1
					{
						OFFSET 0.000000 1.600000 0.340000
						CHANNELS 3 Zrotation Yrotation Xrotation
						JOINT Head
						{
							OFFSET 0.000000 1.667000 -0.240000
							CHANNELS 3 Zrotation Yrotation Xrotation
							End Site
							{
								OFFSET 0.000000 0.000000 0.000000
							}
						}
					}
				}
				JOINT LeftShoulder
				{
					OFFSET 0.000000 0.000000 0.000000
					CHANNELS 3 Zrotation Yrotation Xrotation
					JOINT LeftArm
					{
						OFFSET 2.700000 1.550000 -0.730000
						CHANNELS 3 Zrotation Yrotation Xrotation
						JOINT LeftForeArm
						{
							OFFSET 5.450000 0.000000 0.000000
							CHANNELS 3 Zrotation Yrotation Xrotation
							JOINT LeftHand
							{
								OFFSET 3.450000 0.000000 0.000000
								CHANNELS 3 Zrotation Yrotation Xrotation
								JOINT LeftHandIndex1
								{
									OFFSET 0.750000 0.000000 0.000000
									CHANNELS 3 Zrotation Yrotation Xrotation
									End Site
									{
										OFFSET 0.000000 0.000000 0.000000
									}
								}
							}
						}
					}
				}
				JOINT RightShoulder
				{
					OFFSET 0.000000 0.000000 0.000000
					CHANNELS 3 Zrotation Yrotation Xrotation
					JOINT RightArm
					{
						OFFSET -2.700000 1.550000 -0.730000
						CHANNELS 3 Zrotation Yrotation Xrotation
						JOINT RightForeArm
						{
							OFFSET -5.450000 0.000000 0.000000
							CHANNELS 3 Zrotation Yrotation Xrotation
							JOINT RightHand
							{
								OFFSET -3.450000 0.000000 0.000000
								CHANNELS 3 Zrotation Yrotation Xrotation
								JOINT RightHandIndex1
								{
									OFFSET -0.750000 0.000000 0.000000
									CHANNELS 3 Zrotation Yrotation Xrotation
									End Site
									{
										OFFSET 0.000000 0.000000 0.000000
									}
								}
							}
						}
					}
				}
			}
		}
	}
}
MOTION
Frames: 12
Frame Time: 0.016667
-1.052720 17.620780 -11.864570 -1.416981 31.566326 1.676654 -15.400493 13.444134 2.965683 -1.591318 0.929521 -0.287181 -3.844200 5.466887 11.508313 0.134874 3.964962 3.216625 0.213260 0.121420 0.187230 18.088550 -10.296934 3.665157 7.762378 6.063771 -30.522538 -1.480432 -5.348283 41.343737 -0.503856 -4.967877 2.518802 0.044300 -0.102540 0.055830 -3.719424 -2.226823 -8.099288 8.156957 -5.103047 15.286266 -3.456883 -3.875127 -3.825957 2.691899 2.293760 -5.786596 1.293960 -6.591540 35.394719 2.763080 -6.644230 -9.591200 -30.987715 -2.245463 -0.076000 -42.715627 2.213076 -6.483059 -12.516399 -13.353948 0.069833 -3.565167 3.034571 0.219520 -0.115040 0.104330 0.031500 25.910393 -0.252942 3.158779 46.271296 -11.339773 -10.733244 31.827958 15.213822 0.577163 2.523263 -1.372285 0.019020 0.026470 -0.076650 -0.069110 
-1.086730 17.627000 -11.877770 -1.619239 30.120444 1.174569 -15.382645 13.430131 2.968616 -1.571291 0.995894 0.087727 -3.741763 5.449098 11.365702 0.136647 3.968666 3.207447 0.227260 0.137180 0.202490 18.108825 -10.271368 3.709479 8.120657 6.276468 -30.462899 -1.523971 -5.329297 41.710318 -0.530603 -5.016316 2.498855 0.049770 -0.119730 0.057920 -3.736848 -2.207396 -8.155135 8.267637 -5.006455 15.806128 -4.161153 -3.680752 -2.916586 2.952058 2.407333 -6.461270 1.395080 -6.211943 36.709429 2.610860 -6.193620 -9.462150 -30.441448 -3.784716 0.422094 -41.474000 1.315536 -5.964090 -12.658462 -13.044801 0.114310 -3.551851 3.038688 0.232860 -0.124040 0.120830 0.030590 24.759507 1.192371 3.906272 44.758218 -10.968439 -10.333058 36.614594 14.953113 0.751144 2.523021 -1.430372 0.023840 0.022040 -0.084340 -0.075570 
-1.136020 17.635020 -11.906520 -1.640848 28.500780 0.879702 -15.366867 13.400129 2.956565 -1.699696 0.975542 -0.109531 -3.923200 5.526998 11.809569 0.130969 3.985140 3.194446 0.241710 0.157900 0.209990 18.129531 -10.236827 3.772864 8.403150 6.609482 -30.652012 -1.456810 -5.274292 41.931967 -0.546222 -5.039971 2.487831 0.062860 -0.120040 0.060930 -3.737440 -2.166824 -8.194304 7.983572 -4.815444 16.505776 -4.835949 -3.407871 -2.021990 3.121415 2.501688 -6.984777 1.615139 -5.578621 37.293616 2.952550 -5.589190 -9.537280 -30.034512 -5.305039 0.920994 -39.976830 0.368447 -5.424301 -12.315636 -12.820897 0.127309 -3.550387 3.044284 0.237450 -0.123550 0.128550 0.034330 23.954238 2.702368 4.426161 42.838910 -9.906472 -9.639339 41.013852 14.926044 1.024414 2.520009 -1.492841 0.025480 0.025320 -0.088830 -0.076700 
-1.172670 17.636070 -11.926600 -1.622720 27.256782 0.723647 -15.347386 13.348179 2.941353 -2.013084 0.994624 -0.216806 -3.941631 5.534228 11.991428 0.116538 3.985546 3.190369 0.255750 0.178240 0.215050 18.163838 -10.196161 3.813367 8.556567 6.887204 -30.929841 -1.190565 -5.347158 42.206557 -0.559957 -5.093051 2.466344 0.081190 -0.113960 0.063880 -3.772432 -2.119126 -8.195183 8.038284 -4.869710 16.811498 -5.704792 -3.374623 -0.888561 3.298387 2.358691 -7.358768 1.521087 -4.891232 36.896864 3.085790 -4.902770 -9.860880 -29.186016 -6.431228 1.319670 -38.729233 -0.603521 -4.880372 -12.356539 -12.580607 0.156766 -3.559797 3.051862 0.236110 -0.116610 0.127720 0.038280 22.650697 3.900218 4.825067 40.808391 -8.602648 -8.888932 46.350739 15.522542 1.628934 2.510878 -1.572352 0.023010 0.030870 -0.090490 -0.078500 
-1.205970 17.630780 -11.936770 -1.735100 26.583890 0.552197 -15.330218 13.302452 2.891514 -1.924338 0.950265 -0.386003 -4.022803 5.611380 12.526919 0.100170 4.022149 3.174539 0.265690 0.195550 0.221480 18.196701 -10.155832 3.861738 8.796956 7.188285 -31.308433 -1.012374 -5.450347 42.700951 -0.581971 -5.185270 2.432403 0.098120 -0.106590 0.068410 -3.816404 -2.064344 -8.174624 8.215846 -5.083240 16.899928 -6.664202 -3.491916 0.316109 3.594167 2.480724 -7.720907 1.965577 -4.391643 36.026289 2.940610 -4.079980 -10.337110 -28.128662 -7.488691 1.769900 -37.776242 -1.457896 -4.461783 -12.088818 -12.729345 0.194145 -3.575126 3.054174 0.235110 -0.104710 0.126800 0.039420 20.907163 4.800383 5.150172 39.120487 -7.188182 -8.152540 52.150079 16.672545 2.628746 2.497169 -1.651749 0.018010 0.037730 -0.089920 -0.083230 
-1.231500 17.629170 -11.949100 -1.815877 26.016375 0.158152 -15.310237 13.236076 2.847668 -1.760677 0.923439 -0.346867 -4.195137 5.726799 13.066645 0.084559 4.076539 3.145488 0.279730 0.211940 0.245290 18.227795 -10.140895 3.924882 8.974219 7.552461 -31.724134 -0.974358 -5.569906 43.697631 -0.625881 -5.352393 2.365234 0.114690 -0.118170 0.070290 -3.869376 -1.916053 -8.186935 8.348795 -5.211574 17.164172 -7.763460 -3.479536 1.557858 4.105920 3.243725 -8.211537 3.498711 -4.305266 36.372812 2.741580 -3.401400 -10.552890 -27.069339 -8.875687 2.436586 -36.766901 -2.171954 -4.115244 -11.799870 -13.095461 0.249162 -3.577086 3.050242 0.246110 -0.103420 0.137300 0.031910 18.763985 5.712264 5.362628 37.079088 -4.918412 -6.972799 58.706621 17.248223 3.719387 2.490937 -1.729364 0.012310 0.040380 -0.093070 -0.098070 
-1.250680 17.626700 -11.952020 -1.723652 25.652930 -0.316509 -15.295521 13.200943 2.836414 -1.639423 0.991595 0.106460 -4.382907 5.822406 13.169589 0.081481 4.134157 3.116889 0.298840 0.234020 0.272040 18.248471 -10.136260 3.932175 8.557994 7.682217 -31.975194 -0.384476 -5.968960 44.456382 -0.671252 -5.514015 2.299555 0.129230 -0.136910 0.072180 -3.912285 -1.846342 -8.195022 8.367068 -5.649364 17.363604 -8.840647 -3.809898 2.815882 4.499674 3.568139 -8.651019 4.179527 -3.946477 37.107955 2.385300 -2.654380 -10.930820 -25.798598 -9.864043 3.068172 -35.907371 -2.441081 -3.915735 -11.876555 -13.663548 0.338980 -3.564365 3.048536 0.263400 -0.110300 0.155770 0.026570 16.669687 6.447870 5.494909 35.321524 -2.709831 -5.938490 65.010106 19.195507 5.787277 2.478029 -1.796431 0.011370 0.042570 -0.100170 -0.111550 
-1.260430 17.620570 -11.954050 -1.759866 25.415462 -0.673302 -15.277871 13.156883 2.822717 -1.469617 1.107093 0.703153 -4.566181 5.850974 12.697969 0.079642 4.175121 3.103202 0.313360 0.256350 0.279630 18.279679 -10.094351 3.941225 7.796345 7.868840 -32.498520 1.018816 -6.772330 45.193251 -0.715864 -5.738433 2.218481 0.148580 -0.133610 0.073430 -3.974922 -1.822259 -8.193909 8.803831 -6.263568 17.315728 -9.898008 -4.308788 3.978216 4.840131 3.397541 -8.816734 4.019714 -3.153242 37.256682 2.176500 -1.883220 -11.091920 -24.848493 -10.259118 3.408756 -35.321476 -2.620321 -3.771629 -11.848318 -14.395325 0.428755 -3.563050 3.054176 0.264490 -0.103950 0.158550 0.030330 15.001293 6.836434 5.506066 32.893422 -0.806487 -4.838877 71.355052 22.671883 9.323665 2.450417 -1.870539 0.007980 0.051400 -0.102460 -0.114480 
-1.274710 17.616490 -11.942400 -1.770908 25.386192 -1.034996 -15.258470 13.109550 2.791338 -1.101020 1.166121 1.170140 -4.942565 5.967698 12.546222 0.082224 4.246646 3.077884 0.330660 0.282900 0.286770 18.314280 -10.046028 3.966742 7.238827 8.122809 -33.051933 2.019874 -7.443930 46.233077 -0.772174 -6.001954 2.125514 0.170260 -0.128580 0.073730 -4.048504 -1.791207 -8.192125 9.201509 -6.940727 17.294863 -11.125482 -4.854659 4.997379 5.172321 3.183949 -8.922309 3.818392 -2.213573 37.163125 2.257680 -1.100760 -11.403030 -24.000886 -10.545829 3.759701 -34.660165 -2.468418 -3.700267 -11.674923 -15.048250 0.492041 -3.558358 3.062605 0.264610 -0.098890 0.160800 0.035260 13.441999 7.129817 5.399144 30.226492 1.273228 -3.574955 79.168528 25.779802 13.655851 2.419629 -1.954203 0.005560 0.061640 -0.105730 -0.115510 
-1.285760 17.611400 -11.933860 -1.823905 25.397881 -1.531392 -15.239249 13.082901 2.759318 -0.796405 1.237766 1.677442 -5.065190 6.053653 12.632984 0.075615 4.317836 3.049212 0.363730 0.328050 0.306050 18.344936 -10.004662 3.980638 6.402757 8.307339 -33.513785 3.286133 -8.275214 47.194577 -0.841591 -6.290059 2.020142 0.203590 -0.135640 0.077990 -4.122028 -1.785679 -8.183288 9.730574 -7.658548 17.530263 -12.171514 -5.474926 5.824712 5.411500 2.732505 -8.800060 3.138785 -1.404943 36.817160 1.744190 -0.371920 -12.358570 -23.783203 -10.520005 3.852236 -33.414275 -2.336893 -3.579499 -11.569210 -15.596492 0.557001 -3.545837 3.073893 0.270820 -0.099490 0.173110 0.042260 12.722172 7.229110 5.209616 27.741211 3.093544 -2.382095 87.163808 30.964294 20.837337 2.389011 -2.036969 0.007090 0.072590 -0.115500 -0.119120 
-1.297610 17.613330 -11.933820 -2.079174 25.299989 -2.267916 -15.225827 13.078472 2.716628 -0.303420 1.276754 2.165352 -5.166871 6.202398 13.062048 0.073331 4.429695 3.010032 0.382920 0.354080 0.315490 18.367000 -9.947134 4.020702 5.846110 8.597052 -33.896351 4.354274 -8.966251 48.026210 -0.898090 -6.543180 1.930680 0.230360 -0.130090 0.076650 -4.172395 -1.815396 -8.192728 10.200180 -8.356881 17.905379 -12.866682 -6.139281 6.663961 5.697614 2.387292 -8.684289 2.667205 -0.443158 37.372566 1.491670 0.231310 -12.465720 -23.807788 -10.533770 3.982901 -32.683934 -2.202184 -3.492124 -10.773124 -16.062479 0.533770 -3.543451 3.074138 0.272260 -0.094210 0.174220 0.047670 12.224514 7.328548 4.950209 24.770450 5.158447 -1.124553 94.742153 37.737868 31.092942 2.381338 -2.091455 0.000320 0.089350 -0.116910 -0.121510 
-1.298830 17.606790 -11.922520 -2.205251 25.181685 -2.634438 -15.226601 13.060713 2.677492 -0.068420 1.358090 2.544423 -5.280864 6.294882 13.150219 0.071131 4.516026 2.990554 0.404730 0.391040 0.311440 18.385792 -9.863387 4.042314 5.083702 8.847143 -34.405805 5.591736 -9.683730 48.617561 -0.939040 -6.789179 1.849472 0.270460 -0.096960 0.073720 -4.184684 -1.884152 -8.157932 10.461752 -8.964426 17.632315 -13.217518 -6.916264 7.555903 5.915046 1.732313 -8.231886 1.787412 1.061117 36.750585 1.503070 1.028540 -12.404810 -23.861478 -9.848476 3.805872 -32.433294 -2.273084 -3.348791 -10.283789 -16.692414 0.548992 -3.560505 3.087039 0.248550 -0.070640 0.155960 0.065860 11.973785 6.925349 4.468600 22.253770 7.487322 0.339538 105.270455 47.064493 48.324642 2.408689 -2.097989 -0.008430 0.116180 -0.119460 -0.111000 
